<svg xmlns="http://www.w3.org/2000/svg" viewBox="0 0 218 237" fill="none">
  <path d="M 87 166 L 87 171 L 88 173 L 90 175 L 100 181 L 106 184 L 111 184 L 116 181 L 114 179 L 109 176 L 101 171 L 94 167 L 91 165 Z M 157 145 L 155 147 L 137 156 L 134 160 L 136 162 L 139 163 L 143 163 L 145 162 L 147 161 L 154 157 L 159 153 L 160 153 L 161 152 L 162 150 L 162 143 Z M 94 129 L 91 132 L 88 136 L 88 152 L 89 154 L 91 156 L 101 162 L 106 164 L 116 170 L 119 173 L 119 176 L 120 179 L 124 183 L 126 184 L 132 184 L 134 183 L 137 181 L 138 179 L 139 177 L 139 172 L 138 169 L 134 165 L 131 164 L 127 164 L 123 166 L 121 164 L 116 161 L 101 153 L 97 149 L 96 147 L 95 143 L 95 140 L 99 136 L 100 134 Z M 127 167 L 132 167 L 136 171 L 136 177 L 132 181 L 129 182 L 126 181 L 122 177 L 122 171 L 125 168 Z M 57 128 L 54 130 L 53 132 L 52 136 L 52 150 L 53 155 L 56 158 L 60 160 L 60 150 L 61 149 L 61 128 Z M 160 119 L 158 120 L 155 122 L 154 124 L 153 128 L 151 130 L 146 133 L 132 141 L 126 144 L 124 144 L 121 143 L 118 142 L 115 139 L 114 137 L 114 134 L 112 134 L 109 135 L 106 136 L 107 140 L 108 143 L 109 145 L 111 146 L 114 148 L 121 152 L 124 153 L 126 153 L 132 150 L 144 142 L 148 140 L 154 137 L 157 137 L 161 139 L 165 139 L 169 137 L 171 135 L 172 133 L 172 127 L 172 125 L 171 123 L 168 120 L 165 119 Z M 160 122 L 165 122 L 167 123 L 169 125 L 170 127 L 170 131 L 169 133 L 167 135 L 165 136 L 160 136 L 156 132 L 155 130 L 155 128 L 156 126 L 157 124 L 158 123 Z M 103 114 L 98 119 L 98 124 L 99 127 L 101 129 L 103 130 L 110 130 L 113 127 L 114 125 L 114 119 L 113 117 L 111 115 L 108 114 Z M 84 114 L 82 115 L 73 120 L 70 123 L 70 143 L 68 160 L 64 163 L 63 166 L 63 170 L 64 173 L 68 177 L 70 178 L 76 178 L 78 177 L 80 176 L 81 175 L 82 173 L 83 171 L 83 165 L 82 163 L 77 158 L 77 130 L 78 128 L 84 122 L 93 123 L 94 115 L 91 115 L 90 114 Z M 71 161 L 75 161 L 77 162 L 80 165 L 80 171 L 76 175 L 73 176 L 70 175 L 66 171 L 66 166 L 67 164 L 69 162 Z M 85 92 L 83 93 L 81 94 L 74 98 L 65 104 L 58 107 L 54 108 L 51 107 L 48 107 L 45 108 L 43 109 L 42 110 L 42 111 L 40 113 L 40 121 L 41 123 L 44 126 L 47 127 L 53 127 L 55 126 L 58 123 L 59 121 L 60 115 L 63 114 L 65 112 L 83 102 L 85 101 L 90 101 L 93 102 L 95 103 L 97 105 L 98 107 L 99 111 L 101 109 L 103 109 L 106 109 L 106 107 L 105 106 L 104 101 L 101 98 L 94 94 L 92 93 L 90 92 Z M 47 110 L 52 110 L 54 111 L 56 113 L 57 115 L 57 119 L 56 121 L 53 124 L 46 124 L 43 121 L 42 118 L 42 116 L 43 114 Z M 152 85 L 152 94 L 151 95 L 151 115 L 153 117 L 155 116 L 157 115 L 159 113 L 160 110 L 160 94 L 159 89 L 156 86 L 154 85 Z M 71 81 L 68 82 L 66 83 L 59 87 L 54 90 L 51 93 L 50 96 L 52 101 L 54 100 L 56 98 L 67 93 L 78 87 L 78 84 L 76 82 L 73 81 Z M 136 67 L 134 68 L 131 71 L 130 73 L 130 80 L 131 82 L 135 86 L 135 115 L 134 117 L 131 120 L 127 123 L 125 123 L 120 121 L 120 125 L 118 129 L 120 129 L 121 130 L 124 130 L 125 131 L 127 131 L 133 128 L 138 125 L 140 123 L 141 123 L 142 122 L 143 120 L 143 87 L 148 82 L 149 80 L 149 78 L 150 76 L 149 72 L 145 68 L 143 67 Z M 138 69 L 141 69 L 143 70 L 147 74 L 147 79 L 143 83 L 141 84 L 138 84 L 136 83 L 133 80 L 132 78 L 132 75 L 133 73 L 136 70 Z M 80 61 L 77 62 L 75 63 L 73 66 L 72 68 L 72 74 L 74 78 L 77 80 L 79 81 L 84 81 L 87 79 L 89 79 L 95 83 L 110 91 L 113 93 L 115 95 L 116 97 L 117 101 L 117 105 L 112 110 L 118 115 L 124 109 L 124 92 L 123 90 L 122 89 L 119 88 L 117 86 L 103 79 L 96 74 L 93 73 L 92 69 L 90 65 L 88 63 L 86 62 L 84 61 Z M 79 64 L 85 64 L 89 68 L 89 74 L 85 78 L 79 78 L 77 77 L 76 76 L 74 72 L 74 70 L 75 68 Z M 102 60 L 98 62 L 96 64 L 100 66 L 109 72 L 120 78 L 123 80 L 125 79 L 125 73 L 120 68 L 113 64 L 107 61 L 104 60 Z " fill="white" fill-rule="evenodd"/>
</svg>